<svg xmlns="http://www.w3.org/2000/svg" width="77" height="24" viewBox="0 0 77 24" fill="none">
<g clip-path="url(#clip0_997_78)">
<path d="M40.5808 6.03012C40.5808 6.89506 39.8832 7.59153 39.0173 7.59153C38.1515 7.59153 37.4544 6.89506 37.4544 6.03012C37.4544 5.16518 38.1278 4.46871 39.0173 4.46871C39.9077 4.49271 40.5808 5.18941 40.5808 6.03012ZM34.1358 9.17742V9.56189C34.1358 9.56189 33.3906 8.60046 31.8033 8.60046C29.1824 8.60046 27.138 10.5946 27.138 13.3572C27.138 16.096 29.1583 18.1139 31.8033 18.1139C33.4146 18.1139 34.1358 17.1289 34.1358 17.1289V17.5372C34.1358 17.7294 34.2804 17.8732 34.4726 17.8732H36.4202V8.83998H34.4726C34.2804 8.8407 34.1358 9.00918 34.1358 9.17742ZM34.1358 14.9668C33.7754 15.4955 33.0537 15.952 32.1882 15.952C30.6492 15.952 29.4706 14.9911 29.4706 13.3572C29.4706 11.7235 30.6492 10.7626 32.1882 10.7626C33.03 10.7626 33.7994 11.2431 34.1358 11.7475V14.9668ZM37.8633 8.8407H40.1717V17.8739H37.8633V8.8407ZM72.3478 8.60023C70.7606 8.60023 70.0149 9.56165 70.0149 9.56165V4.49271H67.7065V17.8739H69.6545C69.847 17.8739 69.9909 17.7056 69.9909 17.5374V17.1292C69.9909 17.1292 70.7366 18.1141 72.3233 18.1141C74.9448 18.1141 76.9887 16.0967 76.9887 13.3579C76.9887 10.6191 74.9448 8.60023 72.3478 8.60023ZM71.963 15.9278C71.0729 15.9278 70.3757 15.4718 70.0149 14.9428V11.7235C70.3757 11.2431 71.1452 10.7386 71.963 10.7386C73.5019 10.7386 74.6803 11.6995 74.6803 13.3332C74.6803 14.9668 73.5022 15.9278 71.963 15.9278ZM66.5043 12.5167V17.8979H64.1954V12.7807C64.1954 11.2915 63.7145 10.6906 62.4167 10.6906C61.7196 10.6906 60.9979 11.0511 60.5402 11.5798V17.8741H58.2323V8.84094H60.0593C60.2517 8.84094 60.3961 9.00918 60.3961 9.17742V9.56189C61.0695 8.86494 61.9591 8.60046 62.8487 8.60046C63.8589 8.60046 64.7007 8.88918 65.374 9.46565C66.1913 10.1384 66.5043 11.0031 66.5043 12.5167ZM52.6284 8.60023C51.0416 8.60023 50.2959 9.56165 50.2959 9.56165V4.49271H47.9875V17.8739H49.9351C50.1275 17.8739 50.2719 17.7056 50.2719 17.5374V17.1292C50.2719 17.1292 51.0176 18.1141 52.6043 18.1141C55.2258 18.1141 57.2697 16.0967 57.2697 13.3579C57.2937 10.6188 55.2498 8.60023 52.6284 8.60023ZM52.2435 15.9278C51.3539 15.9278 50.6567 15.4718 50.2959 14.9428V11.7235C50.6567 11.2431 51.4262 10.7386 52.2435 10.7386C53.7829 10.7386 54.961 11.6995 54.961 13.3332C54.961 14.9668 53.7829 15.9278 52.2435 15.9278ZM45.9914 8.60023C46.6885 8.60023 47.0494 8.7207 47.0494 8.7207V10.8586C47.0494 10.8586 45.1256 10.2099 43.9234 11.5795V17.8976H41.6145V8.8407H43.5626C43.755 8.8407 43.8989 9.00894 43.8989 9.17718V9.56165C44.3323 9.05694 45.2702 8.60023 45.9914 8.60023ZM22.0161 17.0569C21.896 16.7687 21.7757 16.4565 21.6555 16.192C21.4629 15.7598 21.2705 15.3511 21.1025 14.9668L21.0785 14.9428C19.419 11.3391 17.6398 7.68777 15.7638 4.08448L15.6917 3.94C15.4944 3.5662 15.3021 3.18977 15.1149 2.81082C14.8742 2.37811 14.634 1.92212 14.2491 1.48941C13.4796 0.528465 12.3733 -0.000244141 11.1952 -0.000244141C9.99261 -0.000244141 8.91059 0.528468 8.11733 1.44117C7.7565 1.8734 7.49176 2.32987 7.25153 2.76259C7.06384 3.1413 6.87156 3.51772 6.67472 3.89176L6.60241 4.03623C4.75068 7.63952 2.94723 11.2911 1.28793 14.8946L1.26367 14.9423C1.0955 15.3273 0.902831 15.7355 0.710402 16.1675C0.590285 16.432 0.470167 16.7202 0.35005 17.0325C0.0372634 17.9212 -0.0590756 18.7621 0.0615225 19.6273C0.326021 21.4292 1.52816 22.9421 3.1877 23.6153C3.81304 23.8798 4.46239 23.9998 5.13553 23.9998C5.32796 23.9998 5.5682 23.9758 5.76087 23.9515C6.55461 23.8555 7.37212 23.5915 8.16586 23.135C9.15179 22.5823 10.0897 21.7899 11.1477 20.6367C12.2057 21.7899 13.1676 22.5823 14.1295 23.135C14.9234 23.5915 15.7407 23.8555 16.5342 23.9515C16.7266 23.976 16.9674 23.9998 17.1598 23.9998C17.8332 23.9998 18.5063 23.8798 19.1074 23.6153C20.7909 22.9421 21.9691 21.4052 22.2338 19.6273C22.4248 18.7866 22.3287 17.9461 22.0161 17.0569ZM11.171 18.3061C9.87225 16.6725 9.03046 15.1351 8.74218 13.8381C8.62206 13.2854 8.5978 12.8049 8.67011 12.3725C8.71792 11.988 8.86254 11.6515 9.05497 11.3633C9.5119 10.7151 10.2814 10.3064 11.1712 10.3064C12.0613 10.3064 12.8548 10.6908 13.2877 11.3633C13.4801 11.6515 13.6242 11.9882 13.6728 12.3725C13.7446 12.8052 13.7206 13.3094 13.6005 13.8381C13.311 15.1111 12.4692 16.6487 11.171 18.3061ZM20.7655 19.4353C20.5973 20.6845 19.7555 21.7659 18.5774 22.2463C18.0004 22.4863 17.3748 22.5586 16.7499 22.4863C16.1489 22.4141 15.5473 22.2219 14.9225 21.8619C14.0567 21.3809 13.1911 20.6367 12.1809 19.5313C13.7679 17.5856 14.7298 15.8075 15.0906 14.2224C15.259 13.4774 15.2833 12.8049 15.2108 12.18C15.1149 11.5795 14.8982 11.0268 14.5616 10.5463C13.8157 9.46493 12.565 8.8407 11.1707 8.8407C9.7764 8.8407 8.52573 9.48941 7.78028 10.5463C7.44371 11.0268 7.22702 11.5795 7.13092 12.18C7.03483 12.8049 7.05861 13.5014 7.25104 14.2224C7.61163 15.8075 8.59757 17.6094 10.1605 19.5553C9.17461 20.6605 8.28477 21.4054 7.41897 21.8859C6.79363 22.2464 6.19281 22.4386 5.59174 22.5103C4.94263 22.5826 4.31705 22.4863 3.76403 22.2704C2.58592 21.7899 1.74413 20.7085 1.57597 19.4593C1.5039 18.8588 1.55171 18.2584 1.79242 17.5856C1.86425 17.3452 1.98485 17.1052 2.10497 16.8169C2.27337 16.4325 2.46532 16.0238 2.65799 15.6155L2.68225 15.5678C4.34132 11.988 6.12074 8.33647 7.97247 4.78118L8.04454 4.63671C8.23721 4.27671 8.42964 3.89224 8.62183 3.53177C8.81426 3.1473 9.03047 2.78682 9.2952 2.47435C9.80018 1.89836 10.4733 1.58564 11.219 1.58564C11.9647 1.58564 12.6378 1.89836 13.1428 2.47435C13.4076 2.78754 13.6238 3.14802 13.8162 3.53177C14.0089 3.89224 14.2013 4.27671 14.3932 4.63671L14.4655 4.78118C16.289 8.35124 18.0448 11.9554 19.732 15.5918V15.6158C19.9247 16.0007 20.0928 16.4327 20.2852 16.8177C20.4054 17.1054 20.5257 17.3454 20.5978 17.5859C20.7897 18.2099 20.8618 18.8108 20.7655 19.4353Z" fill="white"/>
</g>
<defs>
<clipPath id="clip0_997_78">
<rect width="77" height="24" fill="white"/>
</clipPath>
</defs>
</svg>