<svg width="32" height="32" viewBox="0 0 32 32" fill="none" xmlns="http://www.w3.org/2000/svg">
<path d="M21.3333 30.3334H10.6667C4.50668 30.3334 3.36001 27.4668 3.06667 24.6801L2.06667 14.0001C1.92001 12.6001 1.88001 10.5334 3.26667 8.98676C4.46667 7.65343 6.45334 7.01343 9.33334 7.01343H22.6667C25.56 7.01343 27.5467 7.66676 28.7333 8.98676C30.12 10.5334 30.08 12.6001 29.9333 14.0134L28.9333 24.6668C28.64 27.4668 27.4933 30.3334 21.3333 30.3334ZM9.33334 9.00009C7.08001 9.00009 5.53334 9.44009 4.74667 10.3201C4.09334 11.0401 3.88001 12.1468 4.05334 13.8001L5.05334 24.4801C5.28001 26.5868 5.85334 28.3334 10.6667 28.3334H21.3333C26.1333 28.3334 26.72 26.5868 26.9467 24.4668L27.9467 13.8134C28.12 12.1468 27.9067 11.0401 27.2533 10.3201C26.4667 9.44009 24.92 9.00009 22.6667 9.00009H9.33334Z" fill="#0F6DBA"/>
<path d="M21.3333 9.00008C20.7867 9.00008 20.3333 8.54675 20.3333 8.00008V6.93341C20.3333 4.56008 20.3333 3.66675 17.0667 3.66675H14.9333C11.6667 3.66675 11.6667 4.56008 11.6667 6.93341V8.00008C11.6667 8.54675 11.2133 9.00008 10.6667 9.00008C10.12 9.00008 9.66666 8.54675 9.66666 8.00008V6.93341C9.66666 4.58675 9.66666 1.66675 14.9333 1.66675H17.0667C22.3333 1.66675 22.3333 4.58675 22.3333 6.93341V8.00008C22.3333 8.54675 21.88 9.00008 21.3333 9.00008Z" fill="#0F6DBA"/>
<path d="M16 22.3333C12.3333 22.3333 12.3333 20.0667 12.3333 18.7067V17.3333C12.3333 15.4533 12.7867 15 14.6667 15H17.3333C19.2133 15 19.6667 15.4533 19.6667 17.3333V18.6667C19.6667 20.0533 19.6667 22.3333 16 22.3333ZM14.3333 17C14.3333 17.1067 14.3333 17.2267 14.3333 17.3333V18.7067C14.3333 20.08 14.3333 20.3333 16 20.3333C17.6667 20.3333 17.6667 20.12 17.6667 18.6933V17.3333C17.6667 17.2267 17.6667 17.1067 17.6667 17C17.56 17 17.44 17 17.3333 17H14.6667C14.56 17 14.44 17 14.3333 17Z" fill="#0F6DBA"/>
<path d="M18.6667 19.6932C18.1733 19.6932 17.7333 19.3199 17.68 18.8132C17.6133 18.2666 18 17.7599 18.5467 17.6932C22.0667 17.2532 25.44 15.9199 28.28 13.8532C28.72 13.5199 29.3467 13.6266 29.68 14.0799C30 14.5199 29.9067 15.1466 29.4533 15.4799C26.3333 17.7466 22.6533 19.1999 18.7867 19.6932C18.7467 19.6932 18.7067 19.6932 18.6667 19.6932Z" fill="#0F6DBA"/>
<path d="M13.3333 19.7066C13.2933 19.7066 13.2533 19.7066 13.2133 19.7066C9.55999 19.2933 5.99999 17.96 2.91999 15.8533C2.46665 15.5466 2.34665 14.92 2.65332 14.4666C2.95999 14.0133 3.58665 13.8933 4.03999 14.2C6.85332 16.12 10.0933 17.3333 13.4267 17.72C13.9733 17.7866 14.3733 18.28 14.3067 18.8266C14.2667 19.3333 13.84 19.7066 13.3333 19.7066Z" fill="#0F6DBA"/>
</svg>
