<svg xmlns="http://www.w3.org/2000/svg" width="64" height="64" viewBox="0 0 64 64" fill="none">
<g opacity="0.06">
<rect width="64" height="64" rx="16" fill="#1565D8"/>
</g>
<path fill-rule="evenodd" clip-rule="evenodd" d="M48.934 27.7823V42.8332C48.934 45.926 46.4268 48.4332 43.334 48.4332H20.934C17.8412 48.4332 15.334 45.926 15.334 42.8332V27.7823C15.334 27.0011 15.7171 26.2696 16.3595 25.8226L20.4492 22.9764C20.8118 22.7241 21.3104 22.8135 21.5628 23.1761C21.8152 23.5388 21.7258 24.0373 21.3631 24.2897L17.2734 27.1358C17.0638 27.2817 16.9381 27.5177 16.9341 27.7699C17.1843 27.6815 17.4535 27.6334 17.734 27.6334C18.162 27.6334 18.5822 27.7478 18.9511 27.9649L32.134 35.7216L45.3169 27.9649C45.9522 27.5911 46.6892 27.543 47.3339 27.7706C47.3301 27.518 47.2044 27.2819 46.9946 27.1358L43.0219 24.3712C42.6593 24.1188 42.5699 23.6202 42.8223 23.2576C43.0747 22.8949 43.5732 22.8055 43.9359 23.0579L47.9085 25.8226C48.5509 26.2696 48.934 27.0011 48.934 27.7823Z" fill="#1565D8"/>
<path fill-rule="evenodd" clip-rule="evenodd" d="M20.334 27.333V19.333C20.334 17.1239 22.1248 15.333 24.334 15.333H40.334C42.5431 15.333 44.334 17.1239 44.334 19.333V27.333L32.334 34.533L20.334 27.333ZM27.5344 23.3334H37.1344C37.5762 23.3334 37.9344 22.9752 37.9344 22.5334C37.9344 22.0916 37.5762 21.7334 37.1344 21.7334H27.5344C27.0925 21.7334 26.7344 22.0916 26.7344 22.5334C26.7344 22.9752 27.0925 23.3334 27.5344 23.3334ZM37.1344 28.133H27.5344C27.0925 28.133 26.7344 27.7748 26.7344 27.333C26.7344 26.8911 27.0925 26.533 27.5344 26.533H37.1344C37.5762 26.533 37.9344 26.8911 37.9344 27.333C37.9344 27.7748 37.5762 28.133 37.1344 28.133Z" fill="#B8D0F3"/>
</svg>