<svg width="69" height="24" viewBox="0 0 69 24" fill="none" xmlns="http://www.w3.org/2000/svg">
<g clip-path="url(#clip0_604_21)">
<path d="M10.6699 11.6621H13.6372V15.8909C12.7113 16.1927 11.5423 16.3582 10.3271 16.3582C5.40216 16.3582 2.50759 12.079 2.50759 7.89972C2.50759 3.80076 5.12579 0.925578 8.7785 0.925578C11.0899 0.925578 12.4348 1.7201 13.638 2.82684V4.20653L15.8941 1.91733C14.4671 0.937717 12.4008 0.00671387 9.4473 0.00671387C2.96361 0.00671387 0 4.71326 0 8.58115C0 14.0867 3.95213 17.4033 8.91862 17.4033C11.3267 17.4033 13.4649 17.0303 15.9348 16.333V11.964C15.9348 11.7406 16.0315 11.5873 16.1761 11.4527L16.9555 10.6619H11.663L10.6699 11.6621Z" fill="#AEAEC4"/>
<path d="M23.9625 5.91528C20.2305 5.91528 17.9182 8.68223 17.9182 11.6192C17.9182 14.1542 19.781 17.164 23.5553 17.164C27.1859 17.164 29.4134 14.3917 29.4134 11.4033C29.4134 8.61962 27.2365 5.91631 23.9625 5.91631V5.91528ZM23.3433 6.72198C25.9744 6.72198 27.1462 10.2002 27.1462 12.681C27.1462 16.3704 24.4184 16.4434 24.0923 16.4434C22.844 16.4434 21.9715 15.6779 21.3185 14.6739C20.7436 13.7486 20.1817 12.0295 20.1817 10.3497C20.1817 8.67654 20.7214 7.85957 21.5709 7.25853C22.2655 6.80798 22.9159 6.72198 23.3424 6.72198H23.3433Z" fill="#AEAEC4"/>
<path d="M48.3579 5.91431C45.0985 5.91431 43.3353 8.00816 43.3353 10.346C43.3353 12.1257 44.5918 14.1336 47.1842 14.1336H47.84C47.84 14.1336 47.6614 14.5738 47.6605 14.9991C47.6605 15.6264 47.8825 15.9787 48.3541 16.5209C43.8934 16.7966 42.1007 18.6222 42.1007 20.5843C42.1007 22.3024 43.7222 23.9934 47.1297 23.9934C51.1639 23.9934 53.2532 21.7209 53.2532 19.4907C53.2532 17.9184 52.4812 17.0566 50.5264 15.5703C49.9515 15.117 49.84 14.8283 49.84 14.4889C49.84 14.0029 50.1265 13.6812 50.2316 13.5598C50.4167 13.3616 50.7373 13.1354 50.8571 13.027C51.5139 12.4624 52.4416 11.6268 52.4416 9.95914C52.4416 8.81501 51.9726 7.83073 50.9041 6.90907H52.2086L53.1887 5.91451H48.3579V5.91431ZM47.4588 6.65836C48.0503 6.65836 48.544 6.87057 49.0654 7.31084C49.6438 7.8399 50.568 9.26165 50.568 11.0208C50.568 12.9193 49.1143 13.439 48.3275 13.439C47.9425 13.439 47.481 13.3297 47.0903 13.0586C46.2225 12.4876 45.3611 10.9675 45.3611 9.15881C45.3611 7.52674 46.3192 6.65836 47.4588 6.65836ZM48.7495 17.2416C48.9981 17.2416 49.1769 17.2622 49.1769 17.2622C49.1769 17.2622 49.7638 17.6876 50.1737 18.0053C51.1281 18.7708 51.7232 19.356 51.7232 20.3983C51.7232 21.8313 50.4131 22.9549 48.2915 22.9549C45.9627 22.9549 44.1828 21.8547 44.1828 20.0582C44.1828 18.5699 45.4025 17.2892 48.7495 17.2416Z" fill="#AEAEC4"/>
<path d="M53.8945 16.836H58.3689L59.0506 16.1443L57.7673 15.9817C57.4218 15.9387 57.2165 15.6358 57.2165 15.3423V1.62864C57.2165 1.3585 57.3399 1.22015 57.4301 1.13219L58.2372 0.313354H54.4214L53.4283 1.32102H54.9115V15.5264C54.9115 15.7283 54.8489 15.8657 54.7144 16.0068L53.8945 16.836Z" fill="#AEAEC4"/>
<path d="M64.4317 5.91528C61.9333 5.91528 59.2792 7.84741 59.2792 11.3163C59.2792 14.1812 61.1834 17.164 64.7412 17.164C65.6284 17.164 66.3589 17.0482 67.0434 16.7295C67.7776 16.3864 68.4842 15.8293 69 15.1292C68.0264 15.6274 67.2322 15.9546 66.1773 15.9546C64.1727 15.9546 62.2399 14.487 61.5637 11.7893L68.6453 8.88507C68.2363 7.40536 67.0829 5.91528 64.4326 5.91528H64.4317ZM63.9691 6.70888C65.3096 6.70888 66.2787 7.82778 66.2787 8.70364C66.2787 8.98687 66.1037 9.13644 65.7572 9.27478L61.4044 11.0611C61.4044 11.0611 61.2866 10.5049 61.2866 9.90387C61.2866 7.38285 63.083 6.70888 63.9691 6.70888Z" fill="#AEAEC4"/>
<path d="M36.6258 5.91528C32.8938 5.91528 30.5815 8.68223 30.5815 11.6192C30.5815 14.1542 32.4444 17.164 36.2186 17.164C39.8492 17.164 42.0768 14.3917 42.0768 11.4033C42.0768 8.61962 39.8999 5.91631 36.6258 5.91631V5.91528ZM36.0067 6.72198C38.6378 6.72198 39.8095 10.2002 39.8095 12.681C39.8095 16.3704 37.0817 16.4434 36.7556 16.4434C35.5073 16.4434 34.6349 15.6779 33.9819 14.6739C33.407 13.7486 32.845 12.0295 32.845 10.3497C32.845 8.67654 33.3848 7.85957 34.2343 7.25853C34.9289 6.80798 35.5793 6.72198 36.0057 6.72198H36.0067Z" fill="#AEAEC4"/>
</g>
<defs>
<clipPath id="clip0_604_21">
<rect width="69" height="24" fill="white"/>
</clipPath>
</defs>
</svg>
