<svg xmlns="http://www.w3.org/2000/svg" width="69" height="24" viewBox="0 0 69 24" fill="none">
  <g clip-path="url(#clip0_997_64)">
    <path d="M10.6699 11.6621H13.6372V15.8909C12.7113 16.1927 11.5423 16.3582 10.3271 16.3582C5.40216 16.3582 2.50759 12.079 2.50759 7.89972C2.50759 3.80076 5.12579 0.925578 8.7785 0.925578C11.0899 0.925578 12.4348 1.7201 13.638 2.82684V4.20653L15.8941 1.91733C14.4671 0.937717 12.4008 0.00671387 9.4473 0.00671387C2.96361 0.00671387 0 4.71326 0 8.58115C0 14.0867 3.95213 17.4033 8.91862 17.4033C11.3267 17.4033 13.4649 17.0303 15.9348 16.333V11.964C15.9348 11.7406 16.0315 11.5873 16.1761 11.4527L16.9555 10.6619H11.663L10.6699 11.6621Z" fill="white"/>
    <path d="M23.9625 5.91528C20.2305 5.91528 17.9182 8.68223 17.9182 11.6192C17.9182 14.1542 19.781 17.164 23.5553 17.164C27.1859 17.164 29.4134 14.3917 29.4134 11.4033C29.4134 8.61962 27.2365 5.91631 23.9625 5.91631V5.91528ZM23.3433 6.72198C25.9744 6.72198 27.1462 10.2002 27.1462 12.681C27.1462 16.3704 24.4184 16.4434 24.0923 16.4434C22.844 16.4434 21.9715 15.6779 21.3185 14.6739C20.7436 13.7486 20.1817 12.0295 20.1817 10.3497C20.1817 8.67654 20.7214 7.85957 21.5709 7.25853C22.2655 6.80798 22.9159 6.72198 23.3424 6.72198H23.3433Z" fill="white"/>
    <path d="M48.3578 5.91431C45.0984 5.91431 43.3351 8.00816 43.3351 10.346C43.3351 12.1257 44.5917 14.1336 47.1841 14.1336H47.8399C47.8399 14.1336 47.6613 14.5738 47.6604 14.9991C47.6604 15.6264 47.8824 15.9787 48.354 16.5209C43.8933 16.7966 42.1006 18.6222 42.1006 20.5843C42.1006 22.3024 43.722 23.9934 47.1296 23.9934C51.1637 23.9934 53.2531 21.7209 53.2531 19.4907C53.2531 17.9184 52.4811 17.0566 50.5262 15.5703C49.9514 15.117 49.8399 14.8283 49.8399 14.4889C49.8399 14.0029 50.1264 13.6812 50.2314 13.5598C50.4166 13.3616 50.7372 13.1354 50.857 13.027C51.5138 12.4624 52.4415 11.6268 52.4415 9.95914C52.4415 8.81501 51.9725 7.83073 50.9039 6.90907H52.2084L53.1886 5.91451H48.3578V5.91431ZM47.4587 6.65836C48.0502 6.65836 48.5438 6.87057 49.0653 7.31084C49.6437 7.8399 50.5679 9.26165 50.5679 11.0208C50.5679 12.9193 49.1142 13.439 48.3274 13.439C47.9423 13.439 47.4809 13.3297 47.0902 13.0586C46.2224 12.4876 45.361 10.9675 45.361 9.15881C45.361 7.52674 46.319 6.65836 47.4587 6.65836ZM48.7494 17.2416C48.998 17.2416 49.1768 17.2622 49.1768 17.2622C49.1768 17.2622 49.7636 17.6876 50.1736 18.0053C51.128 18.7708 51.723 19.356 51.723 20.3983C51.723 21.8313 50.413 22.9549 48.2914 22.9549C45.9626 22.9549 44.1827 21.8547 44.1827 20.0582C44.1827 18.5699 45.4024 17.2892 48.7494 17.2416Z" fill="white"/>
    <path d="M53.8944 16.836H58.3688L59.0505 16.1443L57.7672 15.9817C57.4217 15.9387 57.2164 15.6358 57.2164 15.3423V1.62864C57.2164 1.3585 57.3398 1.22015 57.43 1.13219L58.2371 0.313354H54.4213L53.4282 1.32102H54.9114V15.5264C54.9114 15.7283 54.8488 15.8657 54.7143 16.0068L53.8944 16.836Z" fill="white"/>
    <path d="M64.4315 5.91528C61.9331 5.91528 59.2791 7.84741 59.2791 11.3163C59.2791 14.1812 61.1833 17.164 64.7411 17.164C65.6282 17.164 66.3588 17.0482 67.0433 16.7295C67.7775 16.3864 68.4841 15.8293 68.9999 15.1292C68.0262 15.6274 67.2321 15.9546 66.1772 15.9546C64.1726 15.9546 62.2398 14.487 61.5636 11.7893L68.6452 8.88507C68.2362 7.40536 67.0828 5.91528 64.4325 5.91528H64.4315ZM63.969 6.70888C65.3095 6.70888 66.2785 7.82778 66.2785 8.70364C66.2785 8.98687 66.1036 9.13644 65.7571 9.27478L61.4042 11.0611C61.4042 11.0611 61.2864 10.5049 61.2864 9.90387C61.2864 7.38285 63.0828 6.70888 63.969 6.70888Z" fill="white"/>
    <path d="M36.6258 5.91528C32.8938 5.91528 30.5815 8.68223 30.5815 11.6192C30.5815 14.1542 32.4444 17.164 36.2186 17.164C39.8492 17.164 42.0768 14.3917 42.0768 11.4033C42.0768 8.61962 39.8999 5.91631 36.6258 5.91631V5.91528ZM36.0067 6.72198C38.6378 6.72198 39.8095 10.2002 39.8095 12.681C39.8095 16.3704 37.0817 16.4434 36.7556 16.4434C35.5073 16.4434 34.6349 15.6779 33.9819 14.6739C33.407 13.7486 32.845 12.0295 32.845 10.3497C32.845 8.67654 33.3848 7.85957 34.2343 7.25853C34.9289 6.80798 35.5793 6.72198 36.0057 6.72198H36.0067Z" fill="white"/>
  </g>
  <defs>
    <clipPath id="clip0_997_64">
      <rect width="69" height="24" fill="white"/>
    </clipPath>
  </defs>
</svg>