<svg width="591" height="653" viewBox="0 0 591 653" fill="none" xmlns="http://www.w3.org/2000/svg">
<path d="M330.285 31.5171C326.429 15.8321 320.349 2.07065 312.044 -9.76712C303.739 -21.9008 293.358 -32.1109 280.9 -40.3973C268.739 -48.9797 254.502 -55.3425 238.189 -59.4858C222.173 -63.9249 204.525 -66.1445 185.245 -66.1445C143.721 -66.1445 108.276 -56.2304 78.9127 -36.4021C49.8455 -16.5738 27.6001 11.9848 12.1767 49.2737C-2.95013 86.5627 -10.5135 131.546 -10.5135 184.224C-10.5135 237.494 -3.24673 283.07 11.2869 320.951C25.8205 358.831 47.4726 387.834 76.2432 407.958C105.014 428.082 140.755 438.144 183.466 438.144C221.134 438.144 252.426 432.669 277.341 421.72C302.552 410.77 321.387 395.233 333.844 375.108C346.301 354.984 352.53 331.309 352.53 304.082L395.241 308.521H187.025V132.73H591V258.802C591 341.667 573.352 412.545 538.056 471.438C503.057 530.035 454.71 575.019 393.017 606.389C331.62 637.463 261.176 653 181.686 653C93.0013 653 15.1427 634.208 -51.8898 596.623C-118.922 559.038 -171.273 505.472 -208.942 435.925C-246.314 366.378 -265 283.662 -265 187.776C-265 112.606 -253.581 46.0184 -230.742 -11.9867C-207.607 -69.9917 -175.574 -118.971 -134.642 -158.923C-93.711 -199.171 -46.4026 -229.506 7.28275 -249.926C60.9681 -270.642 118.509 -281 179.906 -281C233.888 -281 284.015 -273.305 330.285 -257.916C376.852 -242.823 417.931 -221.219 453.524 -193.105C489.413 -165.286 518.332 -132.288 540.281 -94.1112C562.229 -55.9344 575.576 -14.0583 580.322 31.5171H330.285Z" fill="white" fill-opacity="0.1"/>
</svg>
