<svg width="590" height="689" viewBox="0 0 590 689" fill="none" xmlns="http://www.w3.org/2000/svg">
<path d="M609.889 320.213C605.938 304.142 599.709 290.041 591.2 277.912C582.691 265.48 572.056 255.018 559.293 246.528C546.833 237.734 532.247 231.214 515.534 226.969C499.124 222.421 481.043 220.146 461.291 220.146C418.748 220.146 382.434 230.305 352.35 250.621C322.569 270.938 299.778 300.2 283.977 338.407C268.479 376.614 260.73 422.705 260.73 476.681C260.73 531.262 268.175 577.96 283.065 616.774C297.955 655.587 320.138 685.304 349.615 705.924C379.091 726.544 415.709 736.854 459.468 736.854C498.061 736.854 530.12 731.244 555.646 720.024C581.476 708.805 600.772 692.885 613.535 672.265C626.298 651.645 632.68 627.387 632.68 599.49L676.439 604.038H463.114V423.918H877V553.095C877 638 858.919 710.624 822.757 770.967C786.899 831.007 737.367 877.098 674.16 909.241C611.256 941.08 539.085 957 457.644 957C366.784 957 287.015 937.745 218.338 899.234C149.661 860.724 96.0263 805.839 57.4335 734.579C19.1445 663.32 0 578.567 0 480.319C0 403.299 11.6994 335.071 35.0982 275.638C58.8009 216.204 91.6201 166.02 133.556 125.083C175.491 83.8436 223.96 52.7624 278.963 31.8393C333.965 10.6131 392.918 0 455.821 0C511.128 0 562.483 7.88404 609.889 23.6521C657.598 39.1169 699.686 61.2528 736.151 90.0599C772.921 118.564 802.549 152.374 825.036 191.491C847.524 230.608 861.198 273.515 866.06 320.213H609.889Z" fill="white" fill-opacity="0.1"/>
</svg>
