<svg xmlns="http://www.w3.org/2000/svg" width="817" height="900" viewBox="0 0 817 900" fill="none">
<path d="M634.229 237.262C630.121 220.536 623.642 205.861 614.794 193.238C605.946 180.298 594.886 169.411 581.613 160.574C568.657 151.422 553.489 144.637 536.108 140.219C519.044 135.485 500.241 133.118 479.701 133.118C435.459 133.118 397.696 143.69 366.412 164.835C335.443 185.979 311.742 216.433 295.31 256.198C279.193 295.962 271.135 343.932 271.135 400.106C271.135 456.913 278.877 505.513 294.362 545.909C309.846 586.304 332.915 617.232 363.568 638.692C394.22 660.152 432.299 670.882 477.805 670.882C517.938 670.882 551.276 665.044 577.821 653.367C604.682 641.69 624.748 625.122 638.021 603.662C651.293 582.202 657.929 556.954 657.929 527.92L703.435 532.654H481.597V345.194H912V479.635C912 568 893.198 643.584 855.593 706.386C818.304 768.873 766.794 816.842 701.064 850.295C635.651 883.432 560.599 900 475.909 900C381.422 900 298.47 879.96 227.052 839.88C155.634 799.8 99.8586 742.679 59.7256 668.515C19.9085 594.352 0 506.144 0 403.894C0 323.734 12.1663 252.726 36.499 190.871C61.1476 129.015 95.2765 76.7852 138.886 34.1806C182.495 -8.73953 232.898 -41.0874 290.096 -62.8631C347.293 -84.9544 408.599 -96 474.012 -96C531.526 -96 584.931 -87.7947 634.229 -71.384C683.842 -55.289 727.609 -32.251 765.53 -2.26997C803.767 27.3954 834.578 62.5836 857.963 103.295C881.347 144.006 895.568 188.662 900.624 237.262H634.229Z" fill="white" fill-opacity="0.1"/>
</svg>