<svg width="40" height="40" viewBox="0 0 40 40" fill="none" xmlns="http://www.w3.org/2000/svg">
<path d="M27.1336 36.8333H20.8003C19.8669 36.8333 17.8336 36.5499 16.7503 35.4666L11.7003 31.5666L13.2336 29.5833L18.4003 33.5833C18.8169 33.9833 19.8669 34.3166 20.8003 34.3166H27.1336C28.6336 34.3166 30.2503 33.1166 30.5836 31.7666L34.6169 19.5166C34.8836 18.7833 34.8336 18.1166 34.4836 17.6333C34.1169 17.1166 33.4503 16.8166 32.6336 16.8166H25.9669C25.1003 16.8166 24.3003 16.4499 23.7503 15.8166C23.1836 15.1666 22.9336 14.2999 23.0669 13.3999L23.9003 8.04994C24.1003 7.11661 23.4669 6.06661 22.5669 5.76661C21.7503 5.46661 20.7003 5.89994 20.3336 6.43328L13.5003 16.5999L11.4336 15.2166L18.2669 5.04994C19.3169 3.48328 21.6169 2.73328 23.4169 3.41661C25.5003 4.09994 26.8336 6.39994 26.3669 8.53328L25.5503 13.7833C25.5336 13.8999 25.5336 14.0666 25.6503 14.1999C25.7336 14.2833 25.8503 14.3333 25.9836 14.3333H32.6503C34.2836 14.3333 35.7003 15.0166 36.5336 16.1999C37.3503 17.3499 37.5169 18.8666 36.9836 20.3333L33.0003 32.4666C32.3836 34.8833 29.8169 36.8333 27.1336 36.8333Z" fill="#0F6DBA"/>
<path d="M8.96668 35H7.30001C4.21667 35 2.71667 33.55 2.71667 30.5834V14.25C2.71667 11.2834 4.21667 9.83337 7.30001 9.83337H8.96668C12.05 9.83337 13.55 11.2834 13.55 14.25V30.5834C13.55 33.55 12.05 35 8.96668 35ZM7.30001 12.3334C5.48334 12.3334 5.21668 12.7667 5.21668 14.25V30.5834C5.21668 32.0667 5.48334 32.5 7.30001 32.5H8.96668C10.7833 32.5 11.05 32.0667 11.05 30.5834V14.25C11.05 12.7667 10.7833 12.3334 8.96668 12.3334H7.30001Z" fill="#0F6DBA"/>
</svg>
