<svg xmlns="http://www.w3.org/2000/svg" width="466" height="6" viewBox="0 0 466 6" fill="none">
  <path d="M0.333333 3C0.333333 4.47276 1.52724 5.66667 3 5.66667C4.47276 5.66667 5.66667 4.47276 5.66667 3C5.66667 1.52724 4.47276 0.333333 3 0.333333C1.52724 0.333333 0.333333 1.52724 0.333333 3ZM460.333 3C460.333 4.47276 461.527 5.66667 463 5.66667C464.473 5.66667 465.667 4.47276 465.667 3C465.667 1.52724 464.473 0.333333 463 0.333333C461.527 0.333333 460.333 1.52724 460.333 3ZM3 3.5H463V2.5H3V3.5Z" fill="#9FADEF"/>
</svg>