<svg width="1440" height="740" viewBox="0 0 1440 740" fill="none" xmlns="http://www.w3.org/2000/svg">
<rect width="1440" height="740" fill="#0F6DBA"/>
<mask id="mask0_802_902" style="mask-type:luminance" maskUnits="userSpaceOnUse" x="0" y="0" width="1440" height="740">
<path d="M0 0H1440V740H0V0Z" fill="white"/>
</mask>
<g mask="url(#mask0_802_902)">
<path d="M330.285 31.5171C326.429 15.8321 320.349 2.07065 312.044 -9.76712C303.739 -21.9008 293.358 -32.1109 280.9 -40.3973C268.739 -48.9797 254.502 -55.3425 238.189 -59.4858C222.173 -63.9249 204.525 -66.1445 185.245 -66.1445C143.721 -66.1445 108.276 -56.2304 78.9127 -36.4021C49.8455 -16.5738 27.6001 11.9848 12.1767 49.2737C-2.95013 86.5627 -10.5135 131.546 -10.5135 184.224C-10.5135 237.494 -3.24673 283.07 11.2869 320.951C25.8205 358.831 47.4726 387.834 76.2432 407.958C105.014 428.082 140.755 438.144 183.466 438.144C221.134 438.144 252.426 432.669 277.341 421.72C302.552 410.77 321.387 395.233 333.844 375.108C346.301 354.984 352.53 331.309 352.53 304.082L395.241 308.521H187.025V132.73H591V258.802C591 341.667 573.352 412.545 538.056 471.438C503.057 530.035 454.71 575.019 393.017 606.389C331.62 637.463 261.176 653 181.686 653C93.0013 653 15.1427 634.208 -51.8898 596.623C-118.922 559.038 -171.273 505.472 -208.942 435.925C-246.314 366.378 -265 283.662 -265 187.776C-265 112.606 -253.581 46.0184 -230.742 -11.9867C-207.607 -69.9917 -175.574 -118.971 -134.642 -158.923C-93.711 -199.171 -46.4026 -229.506 7.28275 -249.926C60.9681 -270.642 118.509 -281 179.906 -281C233.888 -281 284.015 -273.305 330.285 -257.916C376.852 -242.823 417.931 -221.219 453.524 -193.105C489.413 -165.286 518.332 -132.288 540.281 -94.1112C562.229 -55.9344 575.576 -14.0583 580.322 31.5171H330.285Z" fill="white" fill-opacity="0.1"/>
<path d="M1459.89 371.213C1455.94 355.142 1449.71 341.041 1441.2 328.912C1432.69 316.48 1422.06 306.018 1409.29 297.528C1396.83 288.734 1382.25 282.214 1365.53 277.969C1349.12 273.421 1331.04 271.146 1311.29 271.146C1268.75 271.146 1232.43 281.305 1202.35 301.621C1172.57 321.938 1149.78 351.2 1133.98 389.407C1118.48 427.614 1110.73 473.705 1110.73 527.681C1110.73 582.262 1118.17 628.96 1133.06 667.774C1147.96 706.587 1170.14 736.304 1199.61 756.924C1229.09 777.544 1265.71 787.854 1309.47 787.854C1348.06 787.854 1380.12 782.244 1405.65 771.024C1431.48 759.805 1450.77 743.885 1463.54 723.265C1476.3 702.645 1482.68 678.387 1482.68 650.49L1526.44 655.038H1313.11V474.918H1727V604.095C1727 689 1708.92 761.624 1672.76 821.967C1636.9 882.007 1587.37 928.098 1524.16 960.241C1461.26 992.08 1389.08 1008 1307.64 1008C1216.78 1008 1137.02 988.745 1068.34 950.234C999.661 911.724 946.026 856.839 907.433 785.579C869.144 714.32 850 629.567 850 531.319C850 454.299 861.699 386.071 885.098 326.638C908.801 267.204 941.62 217.02 983.556 176.083C1025.49 134.844 1073.96 103.762 1128.96 82.8393C1183.96 61.6131 1242.92 51 1305.82 51C1361.13 51 1412.48 58.884 1459.89 74.6521C1507.6 90.1169 1549.69 112.253 1586.15 141.06C1622.92 169.564 1652.55 203.374 1675.04 242.491C1697.52 281.608 1711.2 324.515 1716.06 371.213H1459.89Z" fill="white" fill-opacity="0.1"/>
</g>
</svg>
