<svg xmlns="http://www.w3.org/2000/svg" width="856" height="934" viewBox="0 0 856 934" fill="none">
<path d="M595.285 312.517C591.429 296.832 585.349 283.071 577.044 271.233C568.739 259.099 558.358 248.889 545.9 240.603C533.739 232.02 519.502 225.657 503.189 221.514C487.173 217.075 469.525 214.855 450.245 214.855C408.721 214.855 373.276 224.77 343.913 244.598C314.845 264.426 292.6 292.985 277.177 330.274C262.05 367.563 254.486 412.546 254.486 465.224C254.486 518.494 261.753 564.07 276.287 601.951C290.82 639.831 312.473 668.834 341.243 688.958C370.014 709.082 405.755 719.144 448.466 719.144C486.134 719.144 517.426 713.669 542.341 702.72C567.552 691.77 586.387 676.233 598.844 656.108C611.301 635.984 617.53 612.309 617.53 585.082L660.241 589.521H452.025V413.73H856V539.802C856 622.667 838.352 693.545 803.056 752.438C768.057 811.035 719.71 856.019 658.017 887.389C596.62 918.463 526.176 934 446.686 934C358.001 934 280.143 915.208 213.11 877.623C146.078 840.038 93.727 786.472 56.0582 716.925C18.6861 647.378 0 564.662 0 468.776C0 393.606 11.4193 327.018 34.2578 269.013C57.3929 211.008 89.4262 162.029 130.358 122.077C171.289 81.8286 218.597 51.4943 272.283 31.0741C325.968 10.358 383.509 0 444.906 0C498.888 0 549.015 7.69456 595.285 23.0837C641.852 38.1768 682.931 59.7807 718.524 87.8954C754.413 115.714 783.332 148.712 805.281 186.889C827.229 225.066 840.576 266.942 845.322 312.517H595.285Z" fill="white" fill-opacity="0.1"/>
</svg>