<svg xmlns="http://www.w3.org/2000/svg" width="113" height="24" viewBox="0 0 113 24" fill="none">
  <g clip-path="url(#clip0_997_72)">
    <path d="M113 10.8577V8.88169H110.532V5.80974L110.449 5.83517L108.131 6.54036L108.086 6.55417V8.8818H104.427V7.58511C104.427 6.98132 104.563 6.51928 104.83 6.21114C105.096 5.90669 105.476 5.75191 105.961 5.75191C106.309 5.75191 106.67 5.83354 107.033 5.99451L107.124 6.03495V3.95394L107.082 3.93828C106.743 3.8172 106.282 3.75623 105.711 3.75623C104.991 3.75623 104.337 3.91198 103.767 4.22067C103.196 4.52978 102.747 4.97107 102.433 5.53214C102.119 6.09255 101.96 6.73981 101.96 7.45609V8.88169H100.242V10.8577H101.96V19.1823H104.427V10.8577H108.086V16.1478C108.086 18.3266 109.119 19.4306 111.157 19.4306C111.492 19.4306 111.845 19.3916 112.205 19.3152C112.571 19.2367 112.821 19.1584 112.968 19.0747L113 19.0556V17.0613L112.9 17.1273C112.766 17.2159 112.599 17.2884 112.404 17.3424C112.207 17.3972 112.043 17.4247 111.916 17.4247C111.439 17.4247 111.086 17.2968 110.866 17.0443C110.645 16.7895 110.532 16.344 110.532 15.7208V10.8577H113ZM94.7329 17.4251C93.8376 17.4251 93.1316 17.1299 92.6342 16.5484C92.1336 15.9639 91.88 15.1307 91.88 14.072C91.88 12.9798 92.1336 12.1249 92.6344 11.5302C93.1322 10.9393 93.8313 10.6394 94.7128 10.6394C95.5682 10.6394 96.2491 10.9259 96.7368 11.4912C97.227 12.0594 97.4758 12.9074 97.4758 14.0124C97.4758 15.1309 97.2418 15.9901 96.7805 16.5649C96.3224 17.1353 95.6335 17.4251 94.7329 17.4251ZM94.8426 8.63355C93.1344 8.63355 91.7776 9.13124 90.8102 10.1128C89.8434 11.0945 89.3533 12.4531 89.3533 14.1511C89.3533 15.7638 89.8317 17.0611 90.7755 18.0061C91.7193 18.9515 93.0037 19.4304 94.5928 19.4304C96.2486 19.4304 97.5784 18.9258 98.5454 17.9306C99.5122 16.9365 100.002 15.5908 100.002 13.9325C100.002 12.2945 99.5424 10.9876 98.6354 10.0488C97.7281 9.10962 96.4517 8.63355 94.8426 8.63355ZM85.376 8.63355C84.214 8.63355 83.2528 8.92908 82.5186 9.51177C81.7799 10.0979 81.4052 10.8667 81.4052 11.797C81.4052 12.2806 81.486 12.7101 81.6452 13.0745C81.8053 13.44 82.0532 13.7618 82.3824 14.0319C82.7091 14.2999 83.2135 14.5805 83.8818 14.866C84.4437 15.0959 84.8627 15.2904 85.1288 15.4436C85.389 15.5938 85.5736 15.7448 85.6779 15.8919C85.7792 16.0358 85.8306 16.2327 85.8306 16.4758C85.8306 17.1678 85.3094 17.5045 84.237 17.5045C83.8392 17.5045 83.3854 17.4219 82.8884 17.2591C82.3949 17.0987 81.9291 16.8639 81.5074 16.5628L81.4049 16.4898V18.8513L81.4425 18.8687C81.7916 19.0289 82.2317 19.164 82.7503 19.2703C83.268 19.3767 83.7384 19.4309 84.147 19.4309C85.4079 19.4309 86.4233 19.1339 87.1642 18.5477C87.9098 17.9575 88.2877 17.1706 88.2877 16.2082C88.2877 15.5138 88.0843 14.9184 87.6833 14.4382C87.2851 13.9619 86.5939 13.5247 85.6299 13.1382C84.8619 12.8317 84.3699 12.5772 84.1669 12.3819C83.9712 12.1932 83.8719 11.9264 83.8719 11.5884C83.8719 11.2889 83.9945 11.0489 84.2463 10.8545C84.5 10.6592 84.8532 10.5599 85.2961 10.5599C85.7071 10.5599 86.1276 10.6245 86.5458 10.751C86.9637 10.8775 87.3308 11.0469 87.6372 11.2542L87.738 11.3227V9.08255L87.6993 9.06603C87.4166 8.94549 87.0439 8.84234 86.5911 8.75865C86.1404 8.6755 85.7316 8.63355 85.376 8.63355ZM74.9743 17.4251C74.0791 17.4251 73.373 17.1299 72.8756 16.5484C72.375 15.9639 72.1218 15.1309 72.1218 14.072C72.1218 12.9798 72.3753 12.1249 72.8762 11.5302C73.3735 10.9393 74.0726 10.6394 74.9545 10.6394C75.8095 10.6394 76.4904 10.9259 76.9783 11.4912C77.4685 12.0594 77.7172 12.9074 77.7172 14.0124C77.7172 15.1309 77.4832 15.9901 77.0219 16.5649C76.5638 17.1353 75.8752 17.4251 74.9743 17.4251ZM75.0842 8.63355C73.3756 8.63355 72.0187 9.13124 71.0519 10.1128C70.0851 11.0945 69.5946 12.4531 69.5946 14.1511C69.5946 15.7645 70.0734 17.0611 71.0172 18.0061C71.961 18.9515 73.2453 19.4304 74.8344 19.4304C76.49 19.4304 77.8201 18.9258 78.787 17.9306C79.7537 16.9365 80.2437 15.5908 80.2437 13.9325C80.2437 12.2945 79.784 10.9876 78.8768 10.0488C77.9692 9.10962 76.6931 8.63355 75.0842 8.63355ZM65.8501 10.6655V8.88169H63.4133V19.1821H65.8501V13.913C65.8501 13.0171 66.0544 12.281 66.4575 11.7251C66.8555 11.1757 67.3859 10.8974 68.0334 10.8974C68.2529 10.8974 68.4993 10.9334 68.7662 11.0045C69.0303 11.0753 69.2215 11.1521 69.3344 11.233L69.4368 11.3068V8.86408L69.3973 8.84723C69.1704 8.75137 68.8493 8.703 68.4431 8.703C67.8308 8.703 67.2828 8.89864 66.8134 9.28385C66.4014 9.62242 66.1037 10.0866 65.876 10.6655H65.8501ZM59.0495 8.63355C57.9316 8.63355 56.9344 8.87191 56.0863 9.34178C55.2364 9.81274 54.5791 10.4851 54.1319 11.3401C53.6867 12.193 53.4606 13.1892 53.4606 14.3003C53.4606 15.2735 53.6798 16.1666 54.113 16.9538C54.5464 17.7422 55.1599 18.3591 55.9364 18.7869C56.7119 19.2141 57.6081 19.4308 58.6004 19.4308C59.7585 19.4308 60.7472 19.2005 61.5399 18.7465L61.572 18.7283V16.5085L61.4695 16.5828C61.1104 16.8429 60.7092 17.0505 60.2774 17.2001C59.8467 17.3495 59.4541 17.4251 59.1097 17.4251C58.1536 17.4251 57.386 17.1276 56.8288 16.5411C56.2705 15.9538 55.9874 15.1292 55.9874 14.0915C55.9874 13.0473 56.2826 12.2015 56.8645 11.5773C57.4446 10.9551 58.2136 10.6394 59.1499 10.6394C59.9509 10.6394 60.7313 10.9091 61.4697 11.4417L61.572 11.5155V9.17657L61.5389 9.15809C61.2611 9.00342 60.8821 8.87571 60.4116 8.77887C59.9431 8.68224 59.4849 8.63355 59.0495 8.63355ZM51.7824 8.8818H49.3456V19.1821H51.7824V8.8818ZM50.5889 4.49381C50.1878 4.49381 49.8381 4.62956 49.5507 4.89857C49.2621 5.16835 49.1157 5.50801 49.1157 5.90886C49.1157 6.30341 49.2603 6.63688 49.5462 6.89948C49.8302 7.16132 50.1811 7.29403 50.589 7.29403C50.9969 7.29403 51.3491 7.16132 51.6364 6.89991C51.9257 6.63688 52.0724 6.30352 52.0724 5.90886C52.0724 5.52203 51.9296 5.18585 51.6484 4.90944C51.3673 4.63358 51.0107 4.49381 50.5889 4.49381ZM44.509 8.12183V19.1821H46.9959V4.80912H43.554L39.1791 15.4849L34.9336 4.80912H31.3516V19.182H33.6885V8.12074H33.7688L38.2519 19.1821H40.0156L44.4288 8.12183H44.509Z" fill="white"/>
    <path d="M11.4632 11.4044H0V0.00610352H11.4632V11.4044Z" fill="white"/>
    <path d="M24.12 11.4044H12.657V0.00610352H24.12V11.4044Z" fill="white"/>
    <path d="M11.4629 23.9939H0V12.5957H11.4629V23.9939Z" fill="white"/>
    <path d="M24.12 23.9939H12.657V12.5957H24.12V23.9939Z" fill="white"/>
  </g>
  <defs>
    <clipPath id="clip0_997_72">
      <rect width="113" height="24" fill="white"/>
    </clipPath>
  </defs>
</svg>