<svg xmlns="http://www.w3.org/2000/svg" width="64" height="64" viewBox="0 0 64 64" fill="none">
<g opacity="0.06">
<rect width="64" height="64" rx="16" fill="#1565D8"/>
</g>
<path d="M27.0886 30.5347L32.6121 36.3632C33.2109 36.9952 34.2955 37.0854 35.5037 36.4899C38.5786 35.2151 39.6017 34.9043 40.1858 35.5206L46.535 42.2205C47.2855 43.0125 47.0852 44.3317 46.246 45.2173C41.888 49.816 34.8047 49.816 30.4467 45.2173L18.5861 32.7016C14.25 28.1259 14.25 20.7234 18.5861 16.1478C19.4431 15.2435 20.7591 15.0209 21.5379 15.8428L27.8872 22.5427C28.4375 23.1234 28.1424 24.205 26.9409 27.4278C26.3823 28.6858 26.4718 29.8839 27.0886 30.5347Z" fill="#1565D8"/>
</svg>