<svg xmlns="http://www.w3.org/2000/svg" width="32" height="32" viewBox="0 0 32 32" fill="none">
<path d="M10.7865 15.5067H4.53317C4.63984 9.28 5.8665 8.25334 9.69317 5.98667C10.1332 5.72 10.2798 5.16 10.0132 4.70667C9.75984 4.26667 9.1865 4.12 8.7465 4.38667C4.23984 7.05334 2.6665 8.68 2.6665 16.4267V23.6133C2.6665 25.8933 4.51984 27.7333 6.7865 27.7333H10.7865C13.1332 27.7333 14.9065 25.96 14.9065 23.6133V19.6133C14.9065 17.28 13.1332 15.5067 10.7865 15.5067Z" fill="#277CC1" fill-opacity="0.56"/>
<path d="M25.2134 15.5067H18.9601C19.0667 9.28 20.2934 8.25333 24.1201 5.98667C24.5601 5.72 24.7067 5.16 24.4401 4.70667C24.1734 4.26667 23.6134 4.12 23.1601 4.38667C18.6534 7.05334 17.0801 8.68 17.0801 16.44V23.6267C17.0801 25.9067 18.9334 27.7467 21.2001 27.7467H25.2001C27.5467 27.7467 29.3201 25.9733 29.3201 23.6267V19.6267C29.3334 17.28 27.5601 15.5067 25.2134 15.5067Z" fill="#277CC1" fill-opacity="0.56"/>
</svg>