<svg width="48" height="48" viewBox="0 0 48 48" fill="none" xmlns="http://www.w3.org/2000/svg">
<path d="M30.78 10.42L33.6 16.06C33.98 16.84 35 17.58 35.86 17.74L40.96 18.58C44.22 19.12 44.98 21.48 42.64 23.84L38.66 27.82C38 28.48 37.62 29.78 37.84 30.72L38.98 35.64C39.88 39.52 37.8 41.04 34.38 39L29.6 36.16C28.74 35.64 27.3 35.64 26.44 36.16L21.66 39C18.24 41.02 16.16 39.52 17.06 35.64L18.2 30.72C18.38 29.76 18 28.46 17.34 27.8L13.36 23.82C11.02 21.48 11.78 19.12 15.04 18.56L20.14 17.72C21 17.58 22.02 16.82 22.4 16.04L25.22 10.4C26.76 7.36 29.24 7.36 30.78 10.42Z" fill="white"/>
<path d="M16 11.5H4C3.18 11.5 2.5 10.82 2.5 10C2.5 9.18 3.18 8.5 4 8.5H16C16.82 8.5 17.5 9.18 17.5 10C17.5 10.82 16.82 11.5 16 11.5Z" fill="white"/>
<path d="M10 39.5H4C3.18 39.5 2.5 38.82 2.5 38C2.5 37.18 3.18 36.5 4 36.5H10C10.82 36.5 11.5 37.18 11.5 38C11.5 38.82 10.82 39.5 10 39.5Z" fill="white"/>
<path d="M6 25.5H4C3.18 25.5 2.5 24.82 2.5 24C2.5 23.18 3.18 22.5 4 22.5H6C6.82 22.5 7.5 23.18 7.5 24C7.5 24.82 6.82 25.5 6 25.5Z" fill="white"/>
</svg>
