<svg width="40" height="40" viewBox="0 0 40 40" fill="none" xmlns="http://www.w3.org/2000/svg">
<path d="M17.9833 25.2834C17.6499 25.2834 17.3333 25.15 17.0999 24.9167L13.0666 20.8834C12.5833 20.4 12.5833 19.6 13.0666 19.1167C13.5499 18.6334 14.3499 18.6334 14.8333 19.1167L17.9833 22.2667L25.1499 15.1C25.6333 14.6167 26.4333 14.6167 26.9166 15.1C27.3999 15.5834 27.3999 16.3834 26.9166 16.8667L18.8666 24.9167C18.6333 25.15 18.3166 25.2834 17.9833 25.2834Z" fill="#0F6DBA"/>
<path d="M19.9999 37.9167C18.9499 37.9167 17.8999 37.5667 17.0832 36.8667L14.4499 34.6C14.1832 34.3667 13.5166 34.1334 13.1666 34.1334H10.2999C7.83322 34.1334 5.83322 32.1334 5.83322 29.6667V26.8167C5.83322 26.4667 5.59989 25.8167 5.36655 25.55L3.11655 22.9C1.74989 21.2834 1.74989 18.7334 3.11655 17.1167L5.36655 14.4667C5.59989 14.2 5.83322 13.55 5.83322 13.2V10.3334C5.83322 7.86671 7.83322 5.86671 10.2999 5.86671H13.1832C13.5332 5.86671 14.1999 5.61671 14.4666 5.40004L17.0999 3.13337C18.7332 1.73337 21.2832 1.73337 22.9166 3.13337L25.5499 5.40004C25.8166 5.63337 26.4832 5.86671 26.8332 5.86671H29.6666C32.1332 5.86671 34.1332 7.86671 34.1332 10.3334V13.1667C34.1332 13.5167 34.3832 14.1834 34.6166 14.45L36.8832 17.0834C38.2832 18.7167 38.2832 21.2667 36.8832 22.9L34.6166 25.5334C34.3832 25.8 34.1332 26.4667 34.1332 26.8167V29.65C34.1332 32.1167 32.1332 34.1167 29.6666 34.1167H26.8332C26.4832 34.1167 25.8166 34.3667 25.5499 34.5834L22.9166 36.85C22.0999 37.5667 21.0499 37.9167 19.9999 37.9167ZM10.2999 8.36671C9.21655 8.36671 8.33322 9.25004 8.33322 10.3334V13.1834C8.33322 14.1334 7.88322 15.35 7.26655 16.0667L5.01655 18.7167C4.43322 19.4 4.43322 20.5834 5.01655 21.2667L7.26655 23.9167C7.88322 24.65 8.33322 25.85 8.33322 26.8V29.65C8.33322 30.7334 9.21655 31.6167 10.2999 31.6167H13.1832C14.1499 31.6167 15.3666 32.0667 16.0999 32.7L18.7332 34.9667C19.4166 35.55 20.6166 35.55 21.2999 34.9667L23.9332 32.7C24.6666 32.0834 25.8832 31.6167 26.8499 31.6167H29.6832C30.7666 31.6167 31.6499 30.7334 31.6499 29.65V26.8167C31.6499 25.85 32.0999 24.6334 32.7332 23.9L34.9999 21.2667C35.5832 20.5834 35.5832 19.3834 34.9999 18.7L32.7332 16.0667C32.0999 15.3334 31.6499 14.1167 31.6499 13.15V10.3334C31.6499 9.25004 30.7666 8.36671 29.6832 8.36671H26.8499C25.8832 8.36671 24.6666 7.91671 23.9332 7.28337L21.2999 5.01671C20.6166 4.43337 19.4166 4.43337 18.7332 5.01671L16.0999 7.30004C15.3666 7.91671 14.1332 8.36671 13.1832 8.36671H10.2999Z" fill="#0F6DBA"/>
</svg>
